# xmcd
#
# Track frame offsets: 
#        150
#        14741
#        35340
#        44983
#        64445
#        65718
#        76085
#        82248
#        99965
#        118672
#        121683
#        130992
#        152380
#        162572
#        164204
#        178975
#        200836
#        211702
#
# Disc length: 3062 seconds
#
# Revision: 1
# Processed by: cddbd v1.5.2PL0 Copyright (c) Steve Scherf et al.
# Submitted via: ExactAudioCopy v0.99pb5
#
DISCID=0e0bf412
DTITLE=Linard Bardill - Mis Zauberbett heisst Bernadett
DYEAR=2011
DGENRE=Kinderlieder
TTITLE0=Stoht en Baum vor em Huus
TTITLE1=Mis Zauberbett heisst Bernadett
TTITLE2=Es Liecht am Horizont
TTITLE3=D'Frau Rose isch e Cätscherin
TTITLE4=En feiste Zwerg
TTITLE5=Fründ sind gsünd
TTITLE6=Möckli mi
TTITLE7=Der Waldemar
TTITLE8=Mier sind im Schnee gläge
TTITLE9=En Ma mit rote Hose
TTITLE10=Der Winter muess go
TTITLE11=Noch em grosse Tor
TTITLE12=Grüeni Wiis
TTITLE13=Der durschtig Brunne
TTITLE14=Kumm mier gönd in d' Welt
TTITLE15=Los en Zug (RhB-Song)
TTITLE16=D'Frau Summer
TTITLE17=Typisch Engel
EXTD=
EXTT0=
EXTT1=
EXTT2=
EXTT3=
EXTT4=
EXTT5=
EXTT6=
EXTT7=
EXTT8=
EXTT9=
EXTT10=
EXTT11=
EXTT12=
EXTT13=
EXTT14=
EXTT15=
EXTT16=
EXTT17=
PLAYORDER=
